<svg xmlns="http://www.w3.org/2000/svg" viewBox="0 0 250 100"><g id="Layer_2" data-name="Layer 2"><g id="Layer_1-2" data-name="Layer 1"><path d="M120,33.68c-5.14-8.3-16.2-8.31-26-8v7.12c8.69.07,20.08-1.29,20,9.29.61,17.38-.09,19.79-19,19.31v6.7c5.41.13,13.66.84,18.42-1.92a15.49,15.49,0,0,0,9-14.43C122.26,46.6,123.33,38,120,33.68Z"/><path d="M101.92,68.18c-1.68,0-3.34-.05-4.88-.11L94.85,68H94V61h.84c8.74.23,14-.13,16.56-2.61,2.76-2.65,2.71-7.94,2.41-16.37a8,8,0,0,0-2.23-6.21c-3.11-3-9-2.92-14.24-2.87-.93,0-1.8,0-2.65.06H95V25h-.32c10.14-.36,20.44,0,25.45,8.11,2.62,3.44,2.54,9.53,2.47,14.42,0,1.4,0,2.71,0,3.86a15.81,15.81,0,0,1-9.13,14.66C110.48,67.81,106.14,68.18,101.92,68.18ZM95,68l2,.06c5.41.19,12.16.43,16.29-2a15.38,15.38,0,0,0,9-14.3c0-1.14,0-2.45,0-3.84.06-4.82.14-10.81-2.43-14.15h0c-4.9-7.91-15-8.27-25.88-7.93v6.84h3.34c5.27,0,11.25-.11,14.45,3a8.36,8.36,0,0,1,2.32,6.47c.3,8.57.34,14-2.5,16.72-2.65,2.57-7.9,3-16.61,2.73Z"/><path d="M91,64.53l-.18-35.06c0-3.72,2.85-3.68,4.18-3.83L94.87,0Q88.09,0,84,2.71a8.88,8.88,0,0,0-4,8l.45,89q6.75,0,10.66-2.65A8.73,8.73,0,0,0,95,89.25L94.86,68C94,68,91,68.61,91,64.53Z"/><path d="M80,100v-.14l-.46-89.15a8.92,8.92,0,0,1,4.09-8C86.34.93,90,0,94.54,0H95l.13,25.9-.13,0-.32,0c-1.38.12-3.7.33-3.68,3.54l.17,35A3.57,3.57,0,0,0,92,67.23a3.24,3.24,0,0,0,2.42.63c.16,0,.3,0,.41,0H95l.15,21.43a9,9,0,0,1-4,8c-2.68,1.77-6.37,2.68-11,2.7ZM94.87,0C90.38.08,86.74,1,84,2.77a9,9,0,0,0-4,8l.46,88.87c4.46,0,8-.94,10.64-2.67A8.82,8.82,0,0,0,95,89.14l-.14-21h-.25A3.61,3.61,0,0,1,92,67.45a3.89,3.89,0,0,1-1-2.93l-.18-35c0-3.74,2.84-3.83,4.18-4h0Z"/><path d="M205.42,62.68A5.36,5.36,0,0,0,201,61H180V51h11.8a5.32,5.32,0,0,0,4.38-1.67c.9-1.12,1.35-2.89,1.35-5.33H180V33l12.21-.06s5.7-6.91,5.66-6.94,0,.05,0,0L175.5,26a4.81,4.81,0,0,0-3.19,1.1A3.37,3.37,0,0,0,171,29.69v34.6a3.3,3.3,0,0,0,1.31,2.65A4.89,4.89,0,0,0,175.5,68h31.3C206.8,65.57,206.34,63.79,205.42,62.68Z"/><path d="M206,68H175.55a4.94,4.94,0,0,1-3.22-1.09A3.47,3.47,0,0,1,171,64.16V29.74a3.34,3.34,0,0,1,1.32-2.64A4.8,4.8,0,0,1,175.5,26l21.47.05L197,26l.11.06,0,.05,0,0,.07.09-.17.16c-.25.38-1,1.3-3,3.72S191.76,33,191.6,33h0L180,33.06V44h17v.15c0,2.36-.45,4.1-1.34,5.19A5.37,5.37,0,0,1,191.28,51H180V61h20.23a5.44,5.44,0,0,1,4.4,1.66h0c.91,1.09,1.37,2.84,1.37,5.19ZM175,26a4,4,0,0,0-2.84,1.11A3.54,3.54,0,0,0,171,29.7V64.31a3.29,3.29,0,0,0,.65,2.06A4.07,4.07,0,0,0,175,68h28.75c0-2.41-.43-4.2-1.24-5.31h0A4.56,4.56,0,0,0,198.57,61H179V51h12.54c2.05,0,3.55-.57,4.45-1.69s1.36-2.89,1.38-5.31H179V33l11.36-.06c.44-.55,4.18-5.73,5-6.94Z"/><path d="M72.42,62.68A5.36,5.36,0,0,0,68,61H47V50H58.8a5.32,5.32,0,0,0,4.38-1.67c.9-1.12,1.35-2.89,1.35-5.33H47V33l12.21-.06S64.91,26,64.87,26s0,.05,0,0L42.5,26a4.81,4.81,0,0,0-3.19,1.1A3.37,3.37,0,0,0,38,29.69v34.6a3.3,3.3,0,0,0,1.31,2.65A4.89,4.89,0,0,0,42.5,68H73.8C73.8,65.57,73.34,63.79,72.42,62.68Z"/><path d="M73,68H42.55a4.94,4.94,0,0,1-3.22-1.09A3.47,3.47,0,0,1,38,64.16V29.74a3.34,3.34,0,0,1,1.32-2.64A4.8,4.8,0,0,1,42.5,26L64,26.05,64,26l.11.06,0,.05,0,0,.07.09-.17.16c-.24.36-.93,1.2-2.7,3.35C59.21,32.41,58.77,33,58.6,33h0L47,33.06V43H64v.15c0,2.36-.45,4.1-1.34,5.19A5.39,5.39,0,0,1,58.28,50H47V61H67.23a5.44,5.44,0,0,1,4.4,1.66h0C72.54,63.75,73,65.5,73,67.85ZM42,26a4,4,0,0,0-2.84,1.11A3.54,3.54,0,0,0,38,29.7V64.31a3.29,3.29,0,0,0,.65,2.06A4.07,4.07,0,0,0,42,68H70.75a9.39,9.39,0,0,0-1.24-5.31h0A4.56,4.56,0,0,0,65.57,61H46V50H58.54c2.05,0,3.55-.57,4.45-1.69s1.36-2.89,1.38-5.31H46V33l11.36-.06c.44-.55,4.18-5.73,5-6.94Z"/><path d="M219.26,67.21a13,13,0,0,1-5.87-3.67,8.23,8.23,0,0,1-2-5.54q0-4.8,6.36-4.8a8.91,8.91,0,0,0,2.95,6.74q2.72,2.28,7.65,2.28a11.62,11.62,0,0,0,6.3-1.43,4.53,4.53,0,0,0,2.23-4A4.29,4.29,0,0,0,236,54a7,7,0,0,0-2.92-1.93,37.72,37.72,0,0,0-6-1.73,41.9,41.9,0,0,1-8.86-3,11.3,11.3,0,0,1-4.67-4,10.8,10.8,0,0,1-1.43-5.77A9.41,9.41,0,0,1,214,31.75a12.35,12.35,0,0,1,5.44-3.92,21.7,21.7,0,0,1,8.11-1.41,24,24,0,0,1,7.88,1.2A12.81,12.81,0,0,1,240.89,31a7.19,7.19,0,0,1,2,5c0,2.89-2,4.4-6.13,4.51q-.35-4-2.52-5.92t-6.65-1.87a11.18,11.18,0,0,0-5.9,1.29,4,4,0,0,0-2.06,3.63,4.44,4.44,0,0,0,.8,2.73,6.28,6.28,0,0,0,2.69,1.87,35,35,0,0,0,5.39,1.61,45.14,45.14,0,0,1,9.34,3,11.91,11.91,0,0,1,5,4,10.45,10.45,0,0,1,1.55,5.83,10.19,10.19,0,0,1-2,6.24,12.5,12.5,0,0,1-5.61,4.1,23.06,23.06,0,0,1-8.51,1.43A28.6,28.6,0,0,1,219.26,67.21Z"/><path d="M137.51,67.32a12.85,12.85,0,0,1-5.87-3.67,8.21,8.21,0,0,1-2-5.53q0-4.82,6.36-4.81a8.94,8.94,0,0,0,2.95,6.74c1.82,1.52,4.37,2.29,7.65,2.29a11.65,11.65,0,0,0,6.31-1.44,4.54,4.54,0,0,0,2.23-4,4.38,4.38,0,0,0-.86-2.79,7.11,7.11,0,0,0-2.92-1.93,39,39,0,0,0-6-1.73,41.42,41.42,0,0,1-8.85-3,11.23,11.23,0,0,1-4.67-4,10.77,10.77,0,0,1-1.43-5.78,9.41,9.41,0,0,1,1.92-5.86,12.35,12.35,0,0,1,5.44-3.92,21.7,21.7,0,0,1,8.11-1.41,24.07,24.07,0,0,1,7.88,1.2,13,13,0,0,1,5.44,3.37,7.19,7.19,0,0,1,2,5c0,2.89-2.05,4.4-6.13,4.51q-.35-4-2.53-5.91t-6.64-1.88a11.16,11.16,0,0,0-5.9,1.29,4.06,4.06,0,0,0-2.07,3.63,4.42,4.42,0,0,0,.81,2.73,6.19,6.19,0,0,0,2.69,1.87,34.76,34.76,0,0,0,5.38,1.61,44.94,44.94,0,0,1,9.34,3,12,12,0,0,1,5,4,10.45,10.45,0,0,1,1.55,5.83,10.19,10.19,0,0,1-2,6.24,12.48,12.48,0,0,1-5.62,4.1,23,23,0,0,1-8.5,1.44A28.3,28.3,0,0,1,137.51,67.32Z"/><path d="M1,66.45a4.46,4.46,0,0,1-1-2.88V31.19A5.26,5.26,0,0,1,2,26.7q2-1.48,6-1.48V61H24.12a5.15,5.15,0,0,1,4.24,1.78A8.22,8.22,0,0,1,29.79,68H4.18A4,4,0,0,1,1,66.45Z"/><path d="M126,79.33a1.66,1.66,0,0,1,.53-.89c.21-.15.78-.44.78-.44h4.79a9.67,9.67,0,0,1,3,1.18,3.45,3.45,0,0,1,1.07,2.7,3.15,3.15,0,0,1-.43,1.68A2.61,2.61,0,0,1,134,84.65v0c1.48.44,2,2.5,2,2.5v1.32s-1.51,1.65-2.2,1.67c-.11,0-.2-.07.2-.17V87.3c-.4-.59-.52-1-.77-1.31s-1.15-1-1.15-1h-3.42s-.19.64-.66.74v2.78a.75.75,0,0,1-.13,1.25,2.83,2.83,0,0,1-1.58.42c-.1,0-.18-.07-.29-.17ZM132,83c.58.64,1,.48,1.33.17a1.76,1.76,0,0,0,.46-1.31c0-1.15-.59-1.72-1.79-1.86h-3.31c-.1.14-.19.22-.66.31v3.16c.47.09.56.17.66-.47Z"/><path d="M139.29,80.28a1.19,1.19,0,0,1-.42-.94,1.16,1.16,0,0,1,.42-.92,1.59,1.59,0,0,1,1.07-.36,1.57,1.57,0,0,1,1.06.36,1.16,1.16,0,0,1,.42.92,1.19,1.19,0,0,1-.42.94,1.57,1.57,0,0,1-1.06.36A1.59,1.59,0,0,1,139.29,80.28ZM139,82.72a3.89,3.89,0,0,1,2.29-1.28c.1,0,.18.08-.29.17v7.3c.47.45.28.77-.09,1a3.53,3.53,0,0,1-1.5.3c-.1,0-.18-.08-.41-.18Z"/><path d="M145.77,93.29a3.21,3.21,0,0,1-1.29-.75,1.49,1.49,0,0,1-.47-1.05c0-.38,1-1,1.45-1a.18.18,0,0,1,.19.15,1.46,1.46,0,0,0,.55.92,2.41,2.41,0,0,0,1.45.38,2,2,0,0,0,1.5-.49,10.35,10.35,0,0,0,.85-1.36v-.46a4.26,4.26,0,0,1,.33-.54,3.6,3.6,0,0,1-1.27.73,4.66,4.66,0,0,1-1.49.27,4.1,4.1,0,0,1-1.83-.39,3.08,3.08,0,0,1-1.27-1.09A2.86,2.86,0,0,1,144,87V84.45a2.67,2.67,0,0,1,.47-1.52,3.22,3.22,0,0,1,1.23-1.08,3.58,3.58,0,0,1,1.65-.39,3.41,3.41,0,0,1,1.65.37,4.27,4.27,0,0,1,1.24,1,4.9,4.9,0,0,1-.26-.56c0-.54.66-.82,1.84-.85a.18.18,0,0,1,.18.17v8.12a9.3,9.3,0,0,1-.69,2,3.75,3.75,0,0,1-1.49,1.35,4.65,4.65,0,0,1-2.17.49A5.76,5.76,0,0,1,145.77,93.29ZM149.42,88a1.19,1.19,0,0,0,.58-1v-2.6a1.19,1.19,0,0,0-.57-1A2.46,2.46,0,0,0,148,83a2.5,2.5,0,0,0-1.47.38,1.31,1.31,0,0,0-.51,1.1v2.42a1.3,1.3,0,0,0,.5,1.08,2.33,2.33,0,0,0,1.48.4A2.47,2.47,0,0,0,149.42,88Z"/><path d="M154,79.68c-.1-.52,1.31-1.6,1.93-1.62.11,0,.07.17.07.17v4.15s-.33.68-.33.68a3.86,3.86,0,0,1,3.2-1.64,3.34,3.34,0,0,1,1.64.39,2.79,2.79,0,0,1,1.1,1.08,3.07,3.07,0,0,1,.39,1.54v4.48s-.15.77-.52,1A4.71,4.71,0,0,1,160,90V84.76a1.58,1.58,0,0,0-.44-1.14,1.74,1.74,0,0,0-1.28-.44,2.35,2.35,0,0,0-1.64.58A1.85,1.85,0,0,0,156,85.2v3.71s-1.27,1.26-1.92,1.28c-.1,0-.18-.08-.08-.18Z"/><path d="M165.75,89.4a3.25,3.25,0,0,1-.75-2v-4a8.35,8.35,0,0,0-1.61-.18.17.17,0,0,1-.18-.17,1.68,1.68,0,0,1,.32-1c.21-.26.5-.39.86,0h.51a16.1,16.1,0,0,0,.19-1.81,1,1,0,0,1,.54-1,3.11,3.11,0,0,1,1.44-.29.18.18,0,0,1,.19.17s.08,2.51.18,2.92h2c.1-.41.18-.33.18-.23a1.58,1.58,0,0,1-.34,1,1.45,1.45,0,0,1-1.09.36,8.58,8.58,0,0,0-1.21.18v3.93c.29.4.37.68.54.85a1.14,1.14,0,0,0,.83.25c.38,0,1.3-.29,1.35-.23a2.19,2.19,0,0,1,.3.75,1.14,1.14,0,0,1-.56.91,2.68,2.68,0,0,1-1.56.39A2.72,2.72,0,0,1,165.75,89.4Z"/><path d="M176,79.87a1.61,1.61,0,0,1,.59-1.3,2.4,2.4,0,0,1,1.48-.48.18.18,0,0,1,.16.09l6,8.78-.53-1.23s0-7.46,0-7.46a3.45,3.45,0,0,1,1.75.24,1.43,1.43,0,0,1,.6,1.25v8.86a1.36,1.36,0,0,1-.56,1.08,2.72,2.72,0,0,1-1.35.37L177.8,80.8l.53,1.25s0,6.44,0,6.44a1.43,1.43,0,0,1-.59,1.24A3.53,3.53,0,0,1,176,90Z"/><path d="M189.68,89.79a5.55,5.55,0,0,1-2-2.71s.17-3.54.53-4a3.5,3.5,0,0,1,1.46-1.17,5.52,5.52,0,0,1,4.27,0A3.53,3.53,0,0,1,195.4,83c.36.5.53,4,.53,4a5.53,5.53,0,0,1-2,2.71,5.77,5.77,0,0,1-4.22,0Zm3.79-1.71A1.31,1.31,0,0,0,194,87V84.76a1.59,1.59,0,0,0-1.13-1.53,2.61,2.61,0,0,0-1.7,0A1.59,1.59,0,0,0,190,84.76V87a1.29,1.29,0,0,0,.54,1.09A5.22,5.22,0,0,0,193.47,88.08Z"/><path d="M199.29,89.88a1.52,1.52,0,0,1-.74-.91l-2.06-7.35a1.38,1.38,0,0,1,.43-.13,2.71,2.71,0,0,1,.56,0,1.69,1.69,0,0,1,.9.22,1,1,0,0,1,.46.6l1,4.51s-.12,1-.12,1l1.62-5.64a1,1,0,0,1,.37-.5,2.71,2.71,0,0,1,1.44,0,.91.91,0,0,1,.37.5l1.28,4.76s-.15,1-.15,1l1.38-5.68a1,1,0,0,1,.47-.6,1.77,1.77,0,0,1,.92-.22,2.65,2.65,0,0,1,.56,0,1.3,1.3,0,0,1,.42.13L206.39,89a1.45,1.45,0,0,1-.79.9,3.21,3.21,0,0,1-1.32.32c-.09,0-2-6.79-2-6.79s.1.77.1.8-1.79,6-1.88,6A2.69,2.69,0,0,1,199.29,89.88Z"/><path d="M244,29V25h-1v1h3V25h-1v4Z"/><path d="M247,29V26h.61l.66,2,.65-2H250v3h-1V26.38L248.62,29h-.71L246,26.38V29Z"/></g></g></svg>